<?xml version="1.0" standalone="no"?>
<!DOCTYPE svg PUBLIC "-//W3C//DTD SVG 20010904//EN"
 "http://www.w3.org/TR/2001/REC-SVG-20010904/DTD/svg10.dtd">
<svg version="1.0" xmlns="http://www.w3.org/2000/svg"
 width="60.000000pt" height="67.000000pt" viewBox="0 0 60.000000 67.000000"
 preserveAspectRatio="xMidYMid meet">

<g transform="translate(0.000000,67.000000) scale(0.100000,-0.100000)"
fill="#000000" stroke="none">
<path d="M102 603 l3 -68 53 -3 c48 -3 53 -5 50 -25 -3 -20 -10 -23 -72 -27
l-68 -5 -33 -87 c-30 -82 -31 -88 -15 -103 21 -19 54 -19 71 1 11 14 13 14 21
0 12 -22 64 -20 78 1 10 17 10 17 20 1 14 -24 66 -24 80 0 10 16 10 16 20 0
14 -24 66 -24 80 -1 10 17 10 17 20 1 14 -23 48 -23 73 -1 18 17 19 17 28 0
18 -31 79 -18 78 17 0 11 -13 55 -28 96 l-28 75 -69 5 c-62 4 -69 7 -72 27 -3
20 2 22 50 25 l53 3 3 68 3 67 -201 0 -201 0 3 -67z m74 16 c4 -8 0 -9 -15 -4
-17 5 -21 2 -21 -15 0 -17 4 -20 21 -15 15 5 19 4 15 -4 -9 -14 -43 -14 -51
-1 -3 6 -3 19 0 30 7 21 39 27 51 9z m69 -19 c0 -18 -6 -26 -23 -28 -13 -2
-25 3 -28 12 -10 26 4 48 28 44 17 -2 23 -10 23 -28z m40 20 c-17 -7 -17 -9
-2 -9 21 -1 23 -21 1 -21 -8 0 -12 -4 -9 -10 3 -5 1 -10 -4 -10 -6 0 -11 14
-11 30 0 25 4 30 23 29 21 0 21 -1 2 -9z m61 3 c-14 -4 -16 -7 -6 -13 11 -7
10 -11 -3 -24 -22 -22 -24 -20 -19 14 3 23 9 30 26 29 19 -1 19 -2 2 -6z m54
-3 c-17 -5 -19 -8 -7 -9 9 -1 17 -5 17 -11 0 -5 -8 -10 -17 -11 -12 -1 -10 -4
7 -9 l25 -8 -27 -1 c-25 -1 -28 3 -28 29 0 26 3 30 28 29 l27 -1 -25 -8z m60
0 c-17 -5 -19 -8 -7 -9 9 -1 17 -5 17 -11 0 -5 -8 -10 -17 -11 -12 -1 -10 -4
7 -9 l25 -8 -27 -1 c-25 -1 -28 3 -28 29 0 26 3 30 28 29 l27 -1 -25 -8z m-90
-115 c0 -24 -2 -25 -70 -25 -68 0 -70 1 -70 25 0 24 2 25 70 25 68 0 70 -1 70
-25z"/>
<path d="M204 609 c-10 -17 13 -36 27 -22 12 12 4 33 -11 33 -5 0 -12 -5 -16
-11z"/>
<path d="M73 256 c-21 -10 -23 -17 -23 -102 0 -83 -2 -92 -20 -97 -14 -3 -20
-14 -20 -31 l0 -26 290 0 290 0 0 26 c0 17 -6 28 -20 31 -18 5 -20 14 -20 97
0 87 -1 91 -25 103 -19 8 -33 8 -55 0 -24 -9 -35 -9 -51 2 -15 9 -24 10 -32 2
-15 -15 -60 -14 -75 1 -9 9 -15 9 -24 0 -15 -15 -60 -16 -76 0 -8 8 -15 8 -27
-2 -14 -11 -36 -11 -75 2 -8 3 -25 0 -37 -6z m157 -121 l0 -75 -55 0 -55 0 0
75 0 75 55 0 55 0 0 -75z m236 59 c38 -18 45 -47 15 -65 -10 -7 -16 -20 -14
-29 4 -13 -5 -21 -32 -30 -59 -20 -139 6 -114 36 7 9 7 18 0 33 -16 30 -13 59
7 64 39 10 106 6 138 -9z"/>
<path d="M335 190 c-17 -6 -14 -9 18 -15 46 -9 117 2 96 16 -17 11 -87 11
-114 -1z"/>
<path d="M467 149 c-3 -13 -1 -19 6 -16 15 5 22 37 9 37 -5 0 -12 -9 -15 -21z"/>
<path d="M330 151 c0 -6 4 -13 10 -16 6 -3 7 1 4 9 -7 18 -14 21 -14 7z"/>
<path d="M324 98 c-6 -9 38 -28 66 -28 26 0 74 19 67 27 -10 9 -128 10 -133 1z"/>
</g>
</svg>
